<svg enable-background="new 0 0 110 110" height="512" viewBox="0 0 110 110" width="512" xmlns="http://www.w3.org/2000/svg"><ellipse cx="74.76" cy="69.278" fill="#c65634" rx="22.74" ry="15.766" transform="matrix(.804 -.595 .595 .804 -26.541 58.022)"/><ellipse cx="74.76" cy="69.278" fill="#d6683d" rx="22.74" ry="12.802" transform="matrix(.804 -.595 .595 .804 -26.541 58.022)"/><path d="m63.9425278 77.1150665c7.1901855-4.8962326 17.7347946-7.0282288 23.3435822-13.7257462 1.4207001-1.6767349 2.6292343-3.5945435 3.5226135-5.8722458.1824799-.4652557-.4197922-.708252-.728981-.2917557-1.2532959 1.6880722-2.7832947 3.0601349-4.5025101 4.2163162-7.1908188 4.8971329-17.7303085 7.0246506-23.3426247 13.7249069-1.4208107 1.6766052-2.6295128 3.5945587-3.5231056 5.8723297-.1825409.4651947.4197388.7081909.728981.2917633 1.2528725-1.6875914 2.7827682-3.0594404 4.5020447-4.2155684z" fill="#963e25"/><ellipse cx="32.682" cy="72.534" fill="#c65634" rx="16.099" ry="23.219" transform="matrix(.877 -.48 .48 .877 -30.823 24.613)"/><ellipse cx="32.682" cy="72.534" fill="#d6683d" rx="13.072" ry="23.219" transform="matrix(.877 -.48 .48 .877 -30.823 24.613)"/><path d="m26.2481041 60.5079803c3.9603405 7.9504395 4.6608505 18.9127045 10.6619377 25.5120544 1.5000992 1.6688843 3.2733955 3.1564255 5.4543114 4.3748245.4454918.2488785.7745132-.3268738.3958511-.697197-1.5346909-1.501091-2.7114601-3.238472-3.6436996-5.1374588-3.9611626-7.9512024-4.6578445-18.9076614-10.6612206-25.5109634-1.4999504-1.6689835-3.2733669-3.1567078-5.4543266-4.3753433-.4454155-.2489243-.774437.326828-.395853.6972046 1.5342578 1.5005952 2.7108325 3.2378388 3.6429996 5.136879z" fill="#963e25"/><ellipse cx="50.676" cy="37.655" fill="#c65634" rx="15.482" ry="22.33" transform="matrix(.969 -.247 .247 .969 -7.722 13.662)"/><ellipse cx="50.676" cy="37.655" fill="#d6683d" rx="12.571" ry="22.33" transform="matrix(.969 -.247 .247 .969 -7.722 13.662)"/><path d="m53.7873764 50.3974075c-1.7835922-8.3539543.1906815-18.7320004-3.8173943-26.3165531-.9972916-1.9138336-2.2924957-3.7242317-4.0318375-5.3816261-.3552971-.3385468-.7997017.118866-.5357552.5545158 1.0697174 1.7658386 1.7494545 3.6660004 2.1627083 5.6580887 1.7841797 8.3548603-.192276 18.7265911 3.8169861 26.3153706.9971313 1.913887 2.2924004 3.7244873 4.0317345 5.382103.3552094.3385773.7996178-.1188354.5357513-.554512-1.0694312-1.7652741-1.7490157-3.665268-2.1621932-5.6573869z" fill="#963e25"/></svg>